<svg width="168" height="84" viewBox="0 0 168 84" fill="none" xmlns="http://www.w3.org/2000/svg">
<path d="M36.392 46.024C35.984 46.024 35.78 45.908 35.78 45.676V37.924C35.78 37.692 35.984 37.576 36.392 37.576H36.788C37.188 37.576 37.388 37.692 37.388 37.924V41.032H39.824V37.924C39.824 37.692 40.028 37.576 40.436 37.576H40.82C41.228 37.576 41.432 37.692 41.432 37.924V45.676C41.432 45.908 41.228 46.024 40.82 46.024H40.436C40.028 46.024 39.824 45.908 39.824 45.676V42.388H37.388V45.676C37.388 45.908 37.188 46.024 36.788 46.024H36.392ZM45.315 46.084C44.411 46.084 43.743 45.82 43.311 45.292C42.887 44.756 42.675 43.96 42.675 42.904C42.675 40.728 43.491 39.64 45.123 39.64C46.579 39.64 47.307 40.704 47.307 42.832C47.307 42.92 47.235 43.048 47.091 43.216C46.955 43.384 46.847 43.468 46.767 43.468H44.247C44.271 43.964 44.375 44.324 44.559 44.548C44.743 44.764 45.011 44.872 45.363 44.872C45.571 44.872 45.755 44.844 45.915 44.788C46.075 44.724 46.223 44.656 46.359 44.584C46.495 44.504 46.575 44.464 46.599 44.464C46.703 44.464 46.819 44.572 46.947 44.788C47.083 44.996 47.151 45.156 47.151 45.268C47.151 45.42 47.051 45.56 46.851 45.688C46.659 45.808 46.415 45.904 46.119 45.976C45.831 46.048 45.563 46.084 45.315 46.084ZM45.879 42.472C45.879 41.888 45.815 41.46 45.687 41.188C45.567 40.916 45.371 40.78 45.099 40.78C44.819 40.78 44.607 40.912 44.463 41.176C44.319 41.432 44.231 41.864 44.199 42.472H45.879ZM49.8163 46.084C49.3763 46.084 49.0243 45.948 48.7603 45.676C48.4963 45.404 48.3643 44.976 48.3643 44.392V37.3C48.3643 37.076 48.5763 36.964 49.0003 36.964H49.2402C49.6643 36.964 49.8763 37.076 49.8763 37.3V44.38C49.8763 44.556 49.9043 44.684 49.9603 44.764C50.0163 44.836 50.1003 44.872 50.2123 44.872C50.2683 44.872 50.3243 44.864 50.3803 44.848C50.4443 44.832 50.4923 44.824 50.5243 44.824C50.6123 44.824 50.6842 44.92 50.7402 45.112C50.8043 45.296 50.8363 45.456 50.8363 45.592C50.8363 45.76 50.7283 45.884 50.5123 45.964C50.3043 46.044 50.0723 46.084 49.8163 46.084ZM53.0506 46.084C52.6106 46.084 52.2586 45.948 51.9946 45.676C51.7306 45.404 51.5986 44.976 51.5986 44.392V37.3C51.5986 37.076 51.8106 36.964 52.2346 36.964H52.4746C52.8986 36.964 53.1106 37.076 53.1106 37.3V44.38C53.1106 44.556 53.1386 44.684 53.1946 44.764C53.2506 44.836 53.3346 44.872 53.4466 44.872C53.5026 44.872 53.5586 44.864 53.6146 44.848C53.6786 44.832 53.7266 44.824 53.7586 44.824C53.8466 44.824 53.9186 44.92 53.9746 45.112C54.0386 45.296 54.0706 45.456 54.0706 45.592C54.0706 45.76 53.9626 45.884 53.7466 45.964C53.5386 46.044 53.3066 46.084 53.0506 46.084ZM56.8758 46.084C56.0918 46.084 55.4958 45.808 55.0878 45.256C54.6798 44.704 54.4758 43.908 54.4758 42.868C54.4758 41.82 54.6758 41.02 55.0758 40.468C55.4838 39.916 56.0838 39.64 56.8758 39.64C57.6678 39.64 58.2638 39.916 58.6638 40.468C59.0718 41.02 59.2758 41.82 59.2758 42.868C59.2758 43.916 59.0718 44.716 58.6638 45.268C58.2558 45.812 57.6598 46.084 56.8758 46.084ZM56.8758 44.872C57.1798 44.872 57.3958 44.716 57.5238 44.404C57.6598 44.092 57.7278 43.576 57.7278 42.856C57.7278 42.136 57.6598 41.624 57.5238 41.32C57.3958 41.008 57.1798 40.852 56.8758 40.852C56.5718 40.852 56.3518 41.008 56.2158 41.32C56.0798 41.624 56.0118 42.136 56.0118 42.856C56.0118 43.576 56.0798 44.092 56.2158 44.404C56.3518 44.716 56.5718 44.872 56.8758 44.872ZM61.1426 43.42C60.9346 43.42 60.7906 43.392 60.7106 43.336C60.6386 43.28 60.6026 43.192 60.6026 43.072V37.924C60.6026 37.692 60.8066 37.576 61.2146 37.576H61.6706C62.0786 37.576 62.2826 37.68 62.2826 37.888L61.7666 43.072C61.7506 43.2 61.7066 43.292 61.6346 43.348C61.5706 43.396 61.4386 43.42 61.2386 43.42H61.1426ZM61.0106 46.024C60.6026 46.024 60.3986 45.908 60.3986 45.676V44.68C60.3986 44.456 60.6026 44.344 61.0106 44.344H61.3466C61.7546 44.344 61.9586 44.456 61.9586 44.68V45.676C61.9586 45.908 61.7546 46.024 61.3466 46.024H61.0106ZM67.3409 46.036C66.9329 46.036 66.7289 45.916 66.7289 45.676V37.924C66.7289 37.684 66.9329 37.564 67.3409 37.564H67.7369C68.1369 37.564 68.3369 37.684 68.3369 37.924V45.676C68.3369 45.916 68.1369 46.036 67.7369 46.036H67.3409ZM69.8816 40.048C69.7616 40.048 69.6536 40.028 69.5576 39.988C69.4616 39.948 69.4136 39.888 69.4136 39.808C69.4136 39.744 69.4416 39.636 69.4976 39.484C69.6256 39.188 69.7296 38.884 69.8096 38.572C69.8896 38.26 69.9296 37.872 69.9296 37.408C69.9296 37.256 69.9816 37.14 70.0856 37.06C70.1976 36.972 70.3576 36.928 70.5656 36.928H70.7576C70.9656 36.928 71.1216 36.972 71.2256 37.06C71.3376 37.14 71.3936 37.248 71.3936 37.384C71.3936 37.816 71.3056 38.24 71.1296 38.656C70.9536 39.064 70.7416 39.4 70.4936 39.664C70.2536 39.92 70.0496 40.048 69.8816 40.048ZM78.1971 39.64C78.6371 39.64 78.9771 39.788 79.2171 40.084C79.4651 40.38 79.5891 40.82 79.5891 41.404V45.676C79.5891 45.908 79.3851 46.024 78.9771 46.024H78.6771C78.2691 46.024 78.0651 45.908 78.0651 45.676V41.704C78.0651 41.44 78.0171 41.24 77.9211 41.104C77.8331 40.968 77.6891 40.9 77.4891 40.9C77.3371 40.9 77.1971 40.948 77.0691 41.044C76.9411 41.132 76.8291 41.244 76.7331 41.38V41.428V45.676C76.7331 45.908 76.5291 46.024 76.1211 46.024H75.8091C75.4011 46.024 75.1971 45.908 75.1971 45.676V41.704C75.1971 41.44 75.1491 41.24 75.0531 41.104C74.9651 40.968 74.8211 40.9 74.6211 40.9C74.4451 40.9 74.2931 40.956 74.1651 41.068C74.0371 41.18 73.9371 41.304 73.8651 41.44V45.676C73.8651 45.796 73.8131 45.884 73.7091 45.94C73.6131 45.996 73.4611 46.024 73.2531 46.024H72.9411C72.5411 46.024 72.3411 45.908 72.3411 45.676V41.716C72.3411 41.164 72.3211 40.768 72.2811 40.528C72.2411 40.288 72.2211 40.148 72.2211 40.108C72.2211 39.98 72.3571 39.888 72.6291 39.832C72.9091 39.768 73.1531 39.736 73.3611 39.736C73.4971 39.736 73.5891 39.784 73.6371 39.88C73.6851 39.968 73.7171 40.08 73.7331 40.216C73.7571 40.352 73.7771 40.46 73.7931 40.54C73.9691 40.276 74.1851 40.06 74.4411 39.892C74.7051 39.724 75.0011 39.64 75.3291 39.64C75.6411 39.64 75.9051 39.712 76.1211 39.856C76.3451 40 76.5051 40.216 76.6011 40.504C76.7771 40.248 77.0011 40.04 77.2731 39.88C77.5531 39.72 77.8611 39.64 78.1971 39.64ZM83.2904 46.024C82.8824 46.024 82.6784 45.908 82.6784 45.676V37.924C82.6784 37.692 82.8824 37.576 83.2904 37.576H83.6864C84.0864 37.576 84.2864 37.692 84.2864 37.924V41.032H86.7224V37.924C86.7224 37.692 86.9264 37.576 87.3344 37.576H87.7184C88.1264 37.576 88.3304 37.692 88.3304 37.924V45.676C88.3304 45.908 88.1264 46.024 87.7184 46.024H87.3344C86.9264 46.024 86.7224 45.908 86.7224 45.676V42.388H84.2864V45.676C84.2864 45.908 84.0864 46.024 83.6864 46.024H83.2904ZM91.9735 46.084C91.1895 46.084 90.5935 45.808 90.1855 45.256C89.7775 44.704 89.5735 43.908 89.5735 42.868C89.5735 41.82 89.7735 41.02 90.1735 40.468C90.5815 39.916 91.1815 39.64 91.9735 39.64C92.7655 39.64 93.3615 39.916 93.7615 40.468C94.1695 41.02 94.3735 41.82 94.3735 42.868C94.3735 43.916 94.1695 44.716 93.7615 45.268C93.3535 45.812 92.7575 46.084 91.9735 46.084ZM91.9735 44.872C92.2775 44.872 92.4935 44.716 92.6215 44.404C92.7575 44.092 92.8255 43.576 92.8255 42.856C92.8255 42.136 92.7575 41.624 92.6215 41.32C92.4935 41.008 92.2775 40.852 91.9735 40.852C91.6695 40.852 91.4495 41.008 91.3135 41.32C91.1775 41.624 91.1095 42.136 91.1095 42.856C91.1095 43.576 91.1775 44.092 91.3135 44.404C91.4495 44.716 91.6695 44.872 91.9735 44.872ZM96.7922 46.096C96.3762 46.096 95.9922 46.02 95.6402 45.868C95.2882 45.716 95.1122 45.536 95.1122 45.328C95.1122 45.184 95.1802 45.004 95.3162 44.788C95.4602 44.572 95.5842 44.464 95.6882 44.464C95.7122 44.464 95.7802 44.504 95.8922 44.584C96.0042 44.656 96.1202 44.72 96.2402 44.776C96.3602 44.824 96.4962 44.848 96.6482 44.848C96.8722 44.848 97.0442 44.796 97.1642 44.692C97.2922 44.588 97.3562 44.44 97.3562 44.248C97.3562 44.032 97.2842 43.864 97.1402 43.744C96.9962 43.624 96.7522 43.468 96.4082 43.276C96.0322 43.068 95.7402 42.836 95.5322 42.58C95.3242 42.316 95.2202 41.952 95.2202 41.488C95.2202 40.92 95.3962 40.468 95.7482 40.132C96.1002 39.796 96.5602 39.628 97.1282 39.628C97.4802 39.628 97.8122 39.684 98.1242 39.796C98.4442 39.908 98.6042 40.064 98.6042 40.264C98.6042 40.4 98.5522 40.58 98.4482 40.804C98.3442 41.02 98.2482 41.128 98.1602 41.128C98.1362 41.128 98.0402 41.088 97.8722 41.008C97.7122 40.92 97.5362 40.876 97.3442 40.876C97.1442 40.876 96.9802 40.92 96.8522 41.008C96.7322 41.096 96.6722 41.228 96.6722 41.404C96.6722 41.58 96.7322 41.724 96.8522 41.836C96.9722 41.948 97.1602 42.072 97.4162 42.208L97.6442 42.34C98.0122 42.548 98.2962 42.788 98.4962 43.06C98.6962 43.332 98.7962 43.696 98.7962 44.152C98.7962 44.736 98.6122 45.208 98.2442 45.568C97.8842 45.92 97.4002 46.096 96.7922 46.096ZM101.251 46.084C100.715 46.084 100.299 45.92 100.003 45.592C99.7147 45.256 99.5707 44.796 99.5707 44.212C99.5707 43.532 99.8067 42.992 100.279 42.592C100.759 42.192 101.503 41.992 102.511 41.992V41.668C102.511 41.124 102.231 40.852 101.671 40.852C101.455 40.852 101.267 40.88 101.107 40.936C100.947 40.984 100.775 41.052 100.591 41.14C100.487 41.204 100.411 41.236 100.363 41.236C100.259 41.236 100.139 41.128 100.003 40.912C99.8747 40.688 99.8107 40.516 99.8107 40.396C99.8107 40.268 99.9027 40.148 100.087 40.036C100.279 39.916 100.527 39.82 100.831 39.748C101.135 39.676 101.447 39.64 101.767 39.64C102.535 39.64 103.103 39.816 103.471 40.168C103.839 40.52 104.023 41.004 104.023 41.62V44.008C104.023 44.552 104.047 44.952 104.095 45.208C104.143 45.456 104.167 45.608 104.167 45.664C104.167 45.776 104.035 45.864 103.771 45.928C103.507 45.984 103.271 46.012 103.063 46.012C102.943 46.012 102.855 45.96 102.799 45.856C102.743 45.752 102.687 45.588 102.631 45.364C102.495 45.564 102.307 45.736 102.067 45.88C101.835 46.016 101.563 46.084 101.251 46.084ZM101.671 44.92C101.839 44.92 101.995 44.876 102.139 44.788C102.291 44.7 102.415 44.58 102.511 44.428V42.976C101.487 42.976 100.975 43.356 100.975 44.116C100.975 44.372 101.031 44.572 101.143 44.716C101.263 44.852 101.439 44.92 101.671 44.92ZM106.152 46.024C105.752 46.024 105.552 45.908 105.552 45.676V41.716C105.552 41.164 105.532 40.768 105.492 40.528C105.452 40.288 105.432 40.148 105.432 40.108C105.432 39.98 105.568 39.888 105.84 39.832C106.12 39.768 106.364 39.736 106.572 39.736C106.708 39.736 106.8 39.784 106.848 39.88C106.896 39.968 106.928 40.08 106.944 40.216C106.968 40.352 106.988 40.46 107.004 40.54C107.18 40.276 107.4 40.06 107.664 39.892C107.936 39.724 108.232 39.64 108.552 39.64C109.016 39.64 109.368 39.788 109.608 40.084C109.848 40.38 109.968 40.812 109.968 41.38V45.676C109.968 45.908 109.764 46.024 109.356 46.024H109.056C108.64 46.024 108.432 45.908 108.432 45.676V41.68C108.432 41.416 108.384 41.22 108.288 41.092C108.2 40.964 108.052 40.9 107.844 40.9C107.692 40.9 107.548 40.952 107.412 41.056C107.276 41.152 107.164 41.28 107.076 41.44V45.676C107.076 45.796 107.024 45.884 106.92 45.94C106.824 45.996 106.672 46.024 106.464 46.024H106.152ZM112.817 46.084C112.281 46.084 111.865 45.92 111.569 45.592C111.281 45.256 111.137 44.796 111.137 44.212C111.137 43.532 111.373 42.992 111.845 42.592C112.325 42.192 113.069 41.992 114.077 41.992V41.668C114.077 41.124 113.797 40.852 113.237 40.852C113.021 40.852 112.833 40.88 112.673 40.936C112.513 40.984 112.341 41.052 112.157 41.14C112.053 41.204 111.977 41.236 111.929 41.236C111.825 41.236 111.705 41.128 111.569 40.912C111.441 40.688 111.377 40.516 111.377 40.396C111.377 40.268 111.469 40.148 111.653 40.036C111.845 39.916 112.093 39.82 112.397 39.748C112.701 39.676 113.013 39.64 113.333 39.64C114.101 39.64 114.669 39.816 115.037 40.168C115.405 40.52 115.589 41.004 115.589 41.62V44.008C115.589 44.552 115.613 44.952 115.661 45.208C115.709 45.456 115.733 45.608 115.733 45.664C115.733 45.776 115.601 45.864 115.337 45.928C115.073 45.984 114.837 46.012 114.629 46.012C114.509 46.012 114.421 45.96 114.365 45.856C114.309 45.752 114.253 45.588 114.197 45.364C114.061 45.564 113.873 45.736 113.633 45.88C113.401 46.016 113.129 46.084 112.817 46.084ZM113.237 44.92C113.405 44.92 113.561 44.876 113.705 44.788C113.857 44.7 113.981 44.58 114.077 44.428V42.976C113.053 42.976 112.541 43.356 112.541 44.116C112.541 44.372 112.597 44.572 112.709 44.716C112.829 44.852 113.005 44.92 113.237 44.92Z" fill="#8D00DA"/>
<path d="M27.6725 57V52.875H28.0525V57H27.6725ZM31.381 57L30.1385 54.44H30.556L31.4935 56.475L32.301 54.44H32.546L33.3535 56.475L34.291 54.44H34.7085L33.466 57H33.2235L32.4235 55.0075L31.621 57H31.381ZM36.6116 57.08C36.3449 57.08 36.1041 57.0225 35.8891 56.9075C35.6757 56.7925 35.5066 56.6325 35.3816 56.4275C35.2566 56.2225 35.1941 55.9867 35.1941 55.72C35.1941 55.4517 35.2566 55.2158 35.3816 55.0125C35.5066 54.8075 35.6757 54.6475 35.8891 54.5325C36.1024 54.4175 36.3432 54.36 36.6116 54.36C36.8782 54.36 37.1182 54.4175 37.3316 54.5325C37.5466 54.6475 37.7166 54.8075 37.8416 55.0125C37.9666 55.2158 38.0291 55.4517 38.0291 55.72C38.0291 55.9867 37.9666 56.2225 37.8416 56.4275C37.7166 56.6325 37.5466 56.7925 37.3316 56.9075C37.1182 57.0225 36.8782 57.08 36.6116 57.08ZM36.6116 56.755C36.8116 56.755 36.9899 56.7108 37.1466 56.6225C37.3032 56.5342 37.4266 56.4125 37.5166 56.2575C37.6066 56.1008 37.6516 55.9217 37.6516 55.72C37.6516 55.5183 37.6066 55.34 37.5166 55.185C37.4266 55.0283 37.3032 54.9058 37.1466 54.8175C36.9899 54.7292 36.8116 54.685 36.6116 54.685C36.4116 54.685 36.2332 54.7292 36.0766 54.8175C35.9199 54.9058 35.7966 55.0283 35.7066 55.185C35.6166 55.34 35.5716 55.5183 35.5716 55.72C35.5716 55.92 35.6166 56.0983 35.7066 56.255C35.7966 56.4117 35.9199 56.5342 36.0766 56.6225C36.2332 56.7108 36.4116 56.755 36.6116 56.755ZM38.8998 57V54.44H39.2648V54.8175C39.3465 54.6675 39.4515 54.5542 39.5798 54.4775C39.7098 54.3992 39.8598 54.36 40.0298 54.36C40.1048 54.36 40.1806 54.3683 40.2573 54.385C40.3356 54.4017 40.4031 54.4233 40.4598 54.45L40.3098 54.7575C40.2598 54.7325 40.2023 54.7133 40.1373 54.7C40.074 54.6867 40.0131 54.68 39.9548 54.68C39.8365 54.68 39.7248 54.71 39.6198 54.77C39.5148 54.83 39.429 54.9083 39.3623 55.005C39.2973 55.1 39.2648 55.2017 39.2648 55.31V57H38.8998ZM41.1313 57V52.7H41.4963V55.4875L42.5188 54.44H42.9963L41.8288 55.645L43.0563 57H42.5888L41.4963 55.785V57H41.1313ZM46.005 57L44.7625 54.44H45.18L46.1175 56.475L46.925 54.44H47.17L47.9775 56.475L48.915 54.44H49.3325L48.09 57H47.8475L47.0475 55.0075L46.245 57H46.005ZM50.0252 57V54.44H50.3902V57H50.0252ZM50.2102 53.9275C50.1652 53.9275 50.1244 53.9167 50.0877 53.895C50.0527 53.8733 50.0244 53.8442 50.0027 53.8075C49.9811 53.7708 49.9702 53.7308 49.9702 53.6875C49.9702 53.6442 49.9811 53.605 50.0027 53.57C50.0244 53.5333 50.0527 53.5042 50.0877 53.4825C50.1244 53.4608 50.1652 53.45 50.2102 53.45C50.2536 53.45 50.2927 53.4608 50.3277 53.4825C50.3627 53.5042 50.3911 53.5325 50.4127 53.5675C50.4361 53.6025 50.4477 53.6425 50.4477 53.6875C50.4477 53.7308 50.4361 53.7708 50.4127 53.8075C50.3911 53.8442 50.3627 53.8733 50.3277 53.895C50.2927 53.9167 50.2536 53.9275 50.2102 53.9275ZM52.1057 57.08C51.914 57.08 51.7648 57.0158 51.6582 56.8875C51.5532 56.7575 51.5007 56.575 51.5007 56.34V54.715H51.2407V54.44H51.5007V53.4825H51.8657V54.44H52.5032V54.715H51.8657V56.32C51.8657 56.4617 51.8932 56.57 51.9482 56.645C52.0032 56.72 52.0815 56.7575 52.1832 56.7575C52.2815 56.7575 52.3682 56.73 52.4432 56.675L52.5357 56.965C52.479 57 52.4123 57.0275 52.3357 57.0475C52.259 57.0692 52.1823 57.08 52.1057 57.08ZM53.3334 57V52.6975H53.6984V54.79C53.7684 54.67 53.8767 54.5683 54.0234 54.485C54.1701 54.4017 54.3492 54.36 54.5609 54.36C54.7592 54.36 54.9301 54.4008 55.0734 54.4825C55.2167 54.5642 55.3267 54.6833 55.4034 54.84C55.4801 54.995 55.5184 55.1825 55.5184 55.4025V57H55.1534V55.4725C55.1534 55.2075 55.0917 55.005 54.9684 54.865C54.8451 54.725 54.6709 54.655 54.4459 54.655C54.2892 54.655 54.1551 54.6867 54.0434 54.75C53.9334 54.8133 53.8484 54.8967 53.7884 55C53.7284 55.1017 53.6984 55.2125 53.6984 55.3325V57H53.3334ZM57.883 57V54.715H57.6255V54.44H57.883V53.5225C57.883 53.3308 57.9105 53.1683 57.9655 53.035C58.0205 52.9017 58.1005 52.8 58.2055 52.73C58.3105 52.66 58.4396 52.625 58.593 52.625C58.688 52.625 58.7763 52.6383 58.858 52.665C58.9396 52.69 59.0113 52.7267 59.073 52.775L58.9455 53.035C58.8688 52.975 58.7721 52.945 58.6555 52.945C58.5621 52.945 58.4855 52.9683 58.4255 53.015C58.3655 53.06 58.3205 53.125 58.2905 53.21C58.2621 53.295 58.248 53.3958 58.248 53.5125V54.44H58.9005V54.715H58.248V57H57.883ZM59.642 57V54.44H60.007V54.8175C60.0887 54.6675 60.1937 54.5542 60.322 54.4775C60.452 54.3992 60.602 54.36 60.772 54.36C60.847 54.36 60.9228 54.3683 60.9995 54.385C61.0778 54.4017 61.1453 54.4233 61.202 54.45L61.052 54.7575C61.002 54.7325 60.9445 54.7133 60.8795 54.7C60.8162 54.6867 60.7553 54.68 60.697 54.68C60.5787 54.68 60.467 54.71 60.362 54.77C60.257 54.83 60.1712 54.9083 60.1045 55.005C60.0395 55.1 60.007 55.2017 60.007 55.31V57H59.642ZM63.0666 57.08C62.8 57.08 62.5591 57.0225 62.3441 56.9075C62.1308 56.7925 61.9616 56.6325 61.8366 56.4275C61.7116 56.2225 61.6491 55.9867 61.6491 55.72C61.6491 55.4517 61.7116 55.2158 61.8366 55.0125C61.9616 54.8075 62.1308 54.6475 62.3441 54.5325C62.5575 54.4175 62.7983 54.36 63.0666 54.36C63.3333 54.36 63.5733 54.4175 63.7866 54.5325C64.0016 54.6475 64.1716 54.8075 64.2966 55.0125C64.4216 55.2158 64.4841 55.4517 64.4841 55.72C64.4841 55.9867 64.4216 56.2225 64.2966 56.4275C64.1716 56.6325 64.0016 56.7925 63.7866 56.9075C63.5733 57.0225 63.3333 57.08 63.0666 57.08ZM63.0666 56.755C63.2666 56.755 63.445 56.7108 63.6016 56.6225C63.7583 56.5342 63.8816 56.4125 63.9716 56.2575C64.0616 56.1008 64.1066 55.9217 64.1066 55.72C64.1066 55.5183 64.0616 55.34 63.9716 55.185C63.8816 55.0283 63.7583 54.9058 63.6016 54.8175C63.445 54.7292 63.2666 54.685 63.0666 54.685C62.8666 54.685 62.6883 54.7292 62.5316 54.8175C62.375 54.9058 62.2516 55.0283 62.1616 55.185C62.0716 55.34 62.0266 55.5183 62.0266 55.72C62.0266 55.92 62.0716 56.0983 62.1616 56.255C62.2516 56.4117 62.375 56.5342 62.5316 56.6225C62.6883 56.7108 62.8666 56.755 63.0666 56.755ZM65.3549 57V54.44H65.7199V54.79C65.7899 54.67 65.8982 54.5683 66.0449 54.485C66.1915 54.4017 66.3707 54.36 66.5824 54.36C66.7807 54.36 66.9515 54.4008 67.0949 54.4825C67.2382 54.5642 67.3482 54.6833 67.4249 54.84C67.5015 54.995 67.5399 55.1825 67.5399 55.4025V57H67.1749V55.4725C67.1749 55.2075 67.1132 55.0058 66.9899 54.8675C66.8665 54.7275 66.6924 54.6575 66.4674 54.6575C66.3107 54.6575 66.1765 54.6892 66.0649 54.7525C65.9549 54.8142 65.8699 54.8967 65.8099 55C65.7499 55.1017 65.7199 55.2125 65.7199 55.3325V57H65.3549ZM69.176 57.08C68.9843 57.08 68.8351 57.0158 68.7285 56.8875C68.6235 56.7575 68.571 56.575 68.571 56.34V54.715H68.311V54.44H68.571V53.4825H68.936V54.44H69.5735V54.715H68.936V56.32C68.936 56.4617 68.9635 56.57 69.0185 56.645C69.0735 56.72 69.1518 56.7575 69.2535 56.7575C69.3518 56.7575 69.4385 56.73 69.5135 56.675L69.606 56.965C69.5493 57 69.4826 57.0275 69.406 57.0475C69.3293 57.0692 69.2526 57.08 69.176 57.08ZM70.4037 55.7075V55.395H72.0137V55.7075H70.4037ZM74.2893 57.08C74.0209 57.08 73.7809 57.0208 73.5693 56.9025C73.3593 56.7842 73.1943 56.6233 73.0743 56.42C72.9543 56.215 72.8943 55.985 72.8943 55.73C72.8943 55.5383 72.9284 55.36 72.9968 55.195C73.0668 55.0283 73.1634 54.8825 73.2868 54.7575C73.4101 54.6325 73.5534 54.535 73.7168 54.465C73.8801 54.395 74.0543 54.36 74.2393 54.36C74.4926 54.36 74.7176 54.4158 74.9143 54.5275C75.1126 54.6375 75.2693 54.79 75.3843 54.985C75.5009 55.18 75.5626 55.405 75.5693 55.66C75.5693 55.68 75.5684 55.6967 75.5668 55.71C75.5668 55.7217 75.5651 55.7367 75.5618 55.755H73.2568C73.2568 55.955 73.3018 56.1317 73.3918 56.285C73.4818 56.4383 73.6051 56.5592 73.7618 56.6475C73.9201 56.7342 74.1009 56.7775 74.3043 56.7775C74.4976 56.7775 74.6709 56.7375 74.8243 56.6575C74.9793 56.5758 75.1084 56.4592 75.2118 56.3075L75.4818 56.4525C75.3601 56.6508 75.1943 56.805 74.9843 56.915C74.7759 57.025 74.5443 57.08 74.2893 57.08ZM73.2768 55.48H75.2043C75.1826 55.32 75.1268 55.1792 75.0368 55.0575C74.9468 54.9342 74.8326 54.8375 74.6943 54.7675C74.5576 54.6975 74.4076 54.6625 74.2443 54.6625C74.0759 54.6625 73.9226 54.6975 73.7843 54.7675C73.6459 54.8358 73.5318 54.9317 73.4418 55.055C73.3534 55.1767 73.2984 55.3183 73.2768 55.48ZM76.4193 57V54.44H76.7843V54.79C76.8543 54.67 76.9627 54.5683 77.1093 54.485C77.256 54.4017 77.4352 54.36 77.6468 54.36C77.8452 54.36 78.016 54.4008 78.1593 54.4825C78.3027 54.5642 78.4127 54.6833 78.4893 54.84C78.566 54.995 78.6043 55.1825 78.6043 55.4025V57H78.2393V55.4725C78.2393 55.2075 78.1777 55.0058 78.0543 54.8675C77.931 54.7275 77.7568 54.6575 77.5318 54.6575C77.3752 54.6575 77.241 54.6892 77.1293 54.7525C77.0193 54.8142 76.9343 54.8967 76.8743 55C76.8143 55.1017 76.7843 55.2125 76.7843 55.3325V57H76.4193ZM80.7247 57.08C80.4847 57.08 80.2681 57.0217 80.0747 56.905C79.8831 56.7883 79.7306 56.6275 79.6172 56.4225C79.5056 56.2175 79.4497 55.9833 79.4497 55.72C79.4497 55.4583 79.5056 55.2258 79.6172 55.0225C79.7289 54.8175 79.8806 54.6558 80.0722 54.5375C80.2656 54.4192 80.4847 54.36 80.7297 54.36C80.9581 54.36 81.1647 54.4142 81.3497 54.5225C81.5347 54.6308 81.6797 54.7808 81.7847 54.9725V52.6975H82.1497V57H81.7847V56.46C81.6764 56.6533 81.5289 56.805 81.3422 56.915C81.1572 57.025 80.9514 57.08 80.7247 57.08ZM80.8122 56.7625C81.0039 56.7625 81.1739 56.7183 81.3222 56.63C81.4706 56.54 81.5872 56.4167 81.6722 56.26C81.7572 56.1017 81.7997 55.9225 81.7997 55.7225C81.7997 55.5192 81.7572 55.3392 81.6722 55.1825C81.5889 55.0242 81.4722 54.9008 81.3222 54.8125C81.1739 54.7225 81.0039 54.6775 80.8122 54.6775C80.6222 54.6775 80.4531 54.7225 80.3047 54.8125C80.1564 54.9008 80.0397 55.0242 79.9547 55.1825C79.8697 55.3392 79.8272 55.5192 79.8272 55.7225C79.8272 55.9242 79.8689 56.1033 79.9522 56.26C80.0372 56.4167 80.1539 56.54 80.3022 56.63C80.4522 56.7183 80.6222 56.7625 80.8122 56.7625ZM85.6027 57.08C85.3627 57.08 85.146 57.0217 84.9527 56.905C84.761 56.7883 84.6085 56.6275 84.4952 56.4225C84.3835 56.2175 84.3277 55.9833 84.3277 55.72C84.3277 55.4583 84.3835 55.2258 84.4952 55.0225C84.6068 54.8175 84.7585 54.6558 84.9502 54.5375C85.1435 54.4192 85.3627 54.36 85.6077 54.36C85.836 54.36 86.0427 54.4142 86.2277 54.5225C86.4127 54.6308 86.5577 54.7808 86.6627 54.9725V52.6975H87.0277V57H86.6627V56.46C86.5543 56.6533 86.4068 56.805 86.2202 56.915C86.0352 57.025 85.8293 57.08 85.6027 57.08ZM85.6902 56.7625C85.8818 56.7625 86.0518 56.7183 86.2002 56.63C86.3485 56.54 86.4652 56.4167 86.5502 56.26C86.6352 56.1017 86.6777 55.9225 86.6777 55.7225C86.6777 55.5192 86.6352 55.3392 86.5502 55.1825C86.4668 55.0242 86.3502 54.9008 86.2002 54.8125C86.0518 54.7225 85.8818 54.6775 85.6902 54.6775C85.5002 54.6775 85.331 54.7225 85.1827 54.8125C85.0343 54.9008 84.9177 55.0242 84.8327 55.1825C84.7477 55.3392 84.7052 55.5192 84.7052 55.7225C84.7052 55.9242 84.7468 56.1033 84.8302 56.26C84.9152 56.4167 85.0318 56.54 85.1802 56.63C85.3302 56.7183 85.5002 56.7625 85.6902 56.7625ZM89.3039 57.08C89.0356 57.08 88.7956 57.0208 88.5839 56.9025C88.3739 56.7842 88.2089 56.6233 88.0889 56.42C87.9689 56.215 87.9089 55.985 87.9089 55.73C87.9089 55.5383 87.9431 55.36 88.0114 55.195C88.0814 55.0283 88.1781 54.8825 88.3014 54.7575C88.4247 54.6325 88.5681 54.535 88.7314 54.465C88.8947 54.395 89.0689 54.36 89.2539 54.36C89.5072 54.36 89.7322 54.4158 89.9289 54.5275C90.1272 54.6375 90.2839 54.79 90.3989 54.985C90.5156 55.18 90.5772 55.405 90.5839 55.66C90.5839 55.68 90.5831 55.6967 90.5814 55.71C90.5814 55.7217 90.5797 55.7367 90.5764 55.755H88.2714C88.2714 55.955 88.3164 56.1317 88.4064 56.285C88.4964 56.4383 88.6197 56.5592 88.7764 56.6475C88.9347 56.7342 89.1156 56.7775 89.3189 56.7775C89.5122 56.7775 89.6856 56.7375 89.8389 56.6575C89.9939 56.5758 90.1231 56.4592 90.2264 56.3075L90.4964 56.4525C90.3747 56.6508 90.2089 56.805 89.9989 56.915C89.7906 57.025 89.5589 57.08 89.3039 57.08ZM88.2914 55.48H90.2189C90.1972 55.32 90.1414 55.1792 90.0514 55.0575C89.9614 54.9342 89.8472 54.8375 89.7089 54.7675C89.5722 54.6975 89.4222 54.6625 89.2589 54.6625C89.0906 54.6625 88.9372 54.6975 88.7989 54.7675C88.6606 54.8358 88.5464 54.9317 88.4564 55.055C88.3681 55.1767 88.3131 55.3183 88.2914 55.48ZM92.2843 57L91.0418 54.44H91.4693L92.4043 56.48L93.3418 54.44H93.7693L92.5243 57H92.2843ZM95.6516 57.08C95.3832 57.08 95.1432 57.0208 94.9316 56.9025C94.7216 56.7842 94.5566 56.6233 94.4366 56.42C94.3166 56.215 94.2566 55.985 94.2566 55.73C94.2566 55.5383 94.2907 55.36 94.3591 55.195C94.4291 55.0283 94.5257 54.8825 94.6491 54.7575C94.7724 54.6325 94.9157 54.535 95.0791 54.465C95.2424 54.395 95.4166 54.36 95.6016 54.36C95.8549 54.36 96.0799 54.4158 96.2766 54.5275C96.4749 54.6375 96.6316 54.79 96.7466 54.985C96.8632 55.18 96.9249 55.405 96.9316 55.66C96.9316 55.68 96.9307 55.6967 96.9291 55.71C96.9291 55.7217 96.9274 55.7367 96.9241 55.755H94.6191C94.6191 55.955 94.6641 56.1317 94.7541 56.285C94.8441 56.4383 94.9674 56.5592 95.1241 56.6475C95.2824 56.7342 95.4632 56.7775 95.6666 56.7775C95.8599 56.7775 96.0332 56.7375 96.1866 56.6575C96.3416 56.5758 96.4707 56.4592 96.5741 56.3075L96.8441 56.4525C96.7224 56.6508 96.5566 56.805 96.3466 56.915C96.1382 57.025 95.9066 57.08 95.6516 57.08ZM94.6391 55.48H96.5666C96.5449 55.32 96.4891 55.1792 96.3991 55.0575C96.3091 54.9342 96.1949 54.8375 96.0566 54.7675C95.9199 54.6975 95.7699 54.6625 95.6066 54.6625C95.4382 54.6625 95.2849 54.6975 95.1466 54.7675C95.0082 54.8358 94.8941 54.9317 94.8041 55.055C94.7157 55.1767 94.6607 55.3183 94.6391 55.48ZM97.7816 57V52.7H98.1466V57H97.7816ZM100.445 57.08C100.178 57.08 99.9371 57.0225 99.7221 56.9075C99.5087 56.7925 99.3396 56.6325 99.2146 56.4275C99.0896 56.2225 99.0271 55.9867 99.0271 55.72C99.0271 55.4517 99.0896 55.2158 99.2146 55.0125C99.3396 54.8075 99.5087 54.6475 99.7221 54.5325C99.9354 54.4175 100.176 54.36 100.445 54.36C100.711 54.36 100.951 54.4175 101.165 54.5325C101.38 54.6475 101.55 54.8075 101.675 55.0125C101.8 55.2158 101.862 55.4517 101.862 55.72C101.862 55.9867 101.8 56.2225 101.675 56.4275C101.55 56.6325 101.38 56.7925 101.165 56.9075C100.951 57.0225 100.711 57.08 100.445 57.08ZM100.445 56.755C100.645 56.755 100.823 56.7108 100.98 56.6225C101.136 56.5342 101.26 56.4125 101.35 56.2575C101.44 56.1008 101.485 55.9217 101.485 55.72C101.485 55.5183 101.44 55.34 101.35 55.185C101.26 55.0283 101.136 54.9058 100.98 54.8175C100.823 54.7292 100.645 54.685 100.445 54.685C100.245 54.685 100.066 54.7292 99.9096 54.8175C99.7529 54.9058 99.6296 55.0283 99.5396 55.185C99.4496 55.34 99.4046 55.5183 99.4046 55.72C99.4046 55.92 99.4496 56.0983 99.5396 56.255C99.6296 56.4117 99.7529 56.5342 99.9096 56.6225C100.066 56.7108 100.245 56.755 100.445 56.755ZM102.733 58.3V54.44H103.098V54.97C103.201 54.7783 103.345 54.6292 103.53 54.5225C103.717 54.4142 103.924 54.36 104.15 54.36C104.395 54.36 104.614 54.4192 104.808 54.5375C105.001 54.6558 105.154 54.8175 105.265 55.0225C105.377 55.2258 105.433 55.4583 105.433 55.72C105.433 55.9783 105.377 56.2108 105.265 56.4175C105.155 56.6225 105.004 56.7842 104.81 56.9025C104.619 57.0208 104.4 57.08 104.155 57.08C103.932 57.08 103.727 57.025 103.54 56.915C103.354 56.805 103.206 56.6533 103.098 56.46V58.3H102.733ZM104.07 56.7625C104.262 56.7625 104.432 56.7183 104.58 56.63C104.729 56.54 104.844 56.4167 104.928 56.26C105.013 56.1033 105.055 55.9242 105.055 55.7225C105.055 55.5192 105.013 55.3392 104.928 55.1825C104.843 55.0242 104.726 54.9008 104.578 54.8125C104.431 54.7225 104.262 54.6775 104.07 54.6775C103.879 54.6775 103.709 54.7225 103.56 54.8125C103.412 54.9008 103.295 55.0233 103.21 55.18C103.125 55.3367 103.083 55.5167 103.083 55.72C103.083 55.9217 103.125 56.1017 103.21 56.26C103.295 56.4167 103.412 56.54 103.56 56.63C103.71 56.7183 103.88 56.7625 104.07 56.7625ZM106.327 57V54.44H106.692V54.79C106.793 54.6483 106.915 54.5417 107.057 54.47C107.198 54.3967 107.357 54.36 107.532 54.36C107.742 54.36 107.924 54.4083 108.079 54.505C108.236 54.6017 108.344 54.7333 108.404 54.9C108.502 54.7367 108.627 54.6058 108.779 54.5075C108.932 54.4092 109.114 54.36 109.324 54.36C109.506 54.36 109.667 54.3975 109.809 54.4725C109.951 54.5458 110.062 54.6542 110.142 54.7975C110.223 54.9392 110.264 55.1125 110.264 55.3175V57H109.899V55.42C109.899 55.1867 109.838 55.0017 109.717 54.865C109.595 54.7283 109.432 54.66 109.229 54.66C109.089 54.66 108.962 54.6908 108.849 54.7525C108.736 54.8142 108.646 54.8942 108.579 54.9925C108.512 55.0892 108.479 55.1892 108.479 55.2925V57H108.114V55.3825C108.114 55.1608 108.053 54.985 107.932 54.855C107.812 54.725 107.652 54.66 107.454 54.66C107.314 54.66 107.186 54.69 107.069 54.75C106.954 54.8083 106.862 54.8842 106.794 54.9775C106.726 55.0708 106.692 55.1667 106.692 55.265V57H106.327ZM112.497 57.08C112.229 57.08 111.989 57.0208 111.777 56.9025C111.567 56.7842 111.402 56.6233 111.282 56.42C111.162 56.215 111.102 55.985 111.102 55.73C111.102 55.5383 111.136 55.36 111.205 55.195C111.275 55.0283 111.371 54.8825 111.495 54.7575C111.618 54.6325 111.761 54.535 111.925 54.465C112.088 54.395 112.262 54.36 112.447 54.36C112.701 54.36 112.926 54.4158 113.122 54.5275C113.321 54.6375 113.477 54.79 113.592 54.985C113.709 55.18 113.771 55.405 113.777 55.66C113.777 55.68 113.776 55.6967 113.775 55.71C113.775 55.7217 113.773 55.7367 113.77 55.755H111.465C111.465 55.955 111.51 56.1317 111.6 56.285C111.69 56.4383 111.813 56.5592 111.97 56.6475C112.128 56.7342 112.309 56.7775 112.512 56.7775C112.706 56.7775 112.879 56.7375 113.032 56.6575C113.187 56.5758 113.316 56.4592 113.42 56.3075L113.69 56.4525C113.568 56.6508 113.402 56.805 113.192 56.915C112.984 57.025 112.752 57.08 112.497 57.08ZM111.485 55.48H113.412C113.391 55.32 113.335 55.1792 113.245 55.0575C113.155 54.9342 113.041 54.8375 112.902 54.7675C112.766 54.6975 112.616 54.6625 112.452 54.6625C112.284 54.6625 112.131 54.6975 111.992 54.7675C111.854 54.8358 111.74 54.9317 111.65 55.055C111.561 55.1767 111.506 55.3183 111.485 55.48ZM114.627 57V54.44H114.992V54.79C115.062 54.67 115.171 54.5683 115.317 54.485C115.464 54.4017 115.643 54.36 115.855 54.36C116.053 54.36 116.224 54.4008 116.367 54.4825C116.511 54.5642 116.621 54.6833 116.697 54.84C116.774 54.995 116.812 55.1825 116.812 55.4025V57H116.447V55.4725C116.447 55.2075 116.386 55.0058 116.262 54.8675C116.139 54.7275 115.965 54.6575 115.74 54.6575C115.583 54.6575 115.449 54.6892 115.337 54.7525C115.227 54.8142 115.142 54.8967 115.082 55C115.022 55.1017 114.992 55.2125 114.992 55.3325V57H114.627ZM118.448 57.08C118.257 57.08 118.108 57.0158 118.001 56.8875C117.896 56.7575 117.843 56.575 117.843 56.34V54.715H117.583V54.44H117.843V53.4825H118.208V54.44H118.846V54.715H118.208V56.32C118.208 56.4617 118.236 56.57 118.291 56.645C118.346 56.72 118.424 56.7575 118.526 56.7575C118.624 56.7575 118.711 56.73 118.786 56.675L118.878 56.965C118.822 57 118.755 57.0275 118.678 57.0475C118.602 57.0692 118.525 57.08 118.448 57.08ZM121.333 54.7025C121.286 54.7025 121.244 54.6917 121.205 54.67C121.167 54.6467 121.136 54.6158 121.113 54.5775C121.09 54.5375 121.078 54.4942 121.078 54.4475C121.078 54.3992 121.09 54.3558 121.113 54.3175C121.136 54.2792 121.167 54.2483 121.205 54.225C121.244 54.2017 121.286 54.19 121.333 54.19C121.381 54.19 121.425 54.2017 121.463 54.225C121.501 54.2483 121.532 54.2792 121.555 54.3175C121.579 54.3558 121.59 54.3992 121.59 54.4475C121.59 54.4942 121.579 54.5375 121.555 54.5775C121.532 54.6158 121.501 54.6467 121.463 54.67C121.425 54.6917 121.381 54.7025 121.333 54.7025ZM121.333 57.08C121.286 57.08 121.244 57.0683 121.205 57.045C121.167 57.0217 121.136 56.9908 121.113 56.9525C121.09 56.9125 121.078 56.8692 121.078 56.8225C121.078 56.7758 121.09 56.7333 121.113 56.695C121.136 56.655 121.167 56.6242 121.205 56.6025C121.244 56.5792 121.286 56.5675 121.333 56.5675C121.381 56.5675 121.425 56.5792 121.463 56.6025C121.501 56.6242 121.532 56.655 121.555 56.695C121.579 56.7333 121.59 56.7758 121.59 56.8225C121.59 56.8692 121.579 56.9125 121.555 56.9525C121.532 56.9908 121.501 57.0217 121.463 57.045C121.425 57.0683 121.381 57.08 121.333 57.08ZM122.791 58.3L122.551 58.1975C122.725 57.9425 122.871 57.6667 122.989 57.37C123.107 57.0733 123.197 56.7642 123.259 56.4425C123.322 56.1208 123.354 55.795 123.354 55.465C123.354 55.1483 123.324 54.8308 123.264 54.5125C123.206 54.1942 123.117 53.8842 122.999 53.5825C122.882 53.2808 122.733 52.9958 122.551 52.7275L122.791 52.625C123.088 53.01 123.315 53.4475 123.471 53.9375C123.63 54.4275 123.709 54.9358 123.709 55.4625C123.709 55.9708 123.632 56.4708 123.479 56.9625C123.327 57.4525 123.098 57.8983 122.791 58.3Z" fill="#FF007F"/>
</svg>
