<svg width="109" height="34" viewBox="0 0 109 34" fill="none" xmlns="http://www.w3.org/2000/svg">
<path d="M16.392 16.024C15.984 16.024 15.78 15.908 15.78 15.676V7.924C15.78 7.692 15.984 7.576 16.392 7.576H16.788C17.188 7.576 17.388 7.692 17.388 7.924V11.032H19.824V7.924C19.824 7.692 20.028 7.576 20.436 7.576H20.82C21.228 7.576 21.432 7.692 21.432 7.924V15.676C21.432 15.908 21.228 16.024 20.82 16.024H20.436C20.028 16.024 19.824 15.908 19.824 15.676V12.388H17.388V15.676C17.388 15.908 17.188 16.024 16.788 16.024H16.392ZM25.315 16.084C24.411 16.084 23.743 15.82 23.311 15.292C22.887 14.756 22.675 13.96 22.675 12.904C22.675 10.728 23.491 9.64 25.123 9.64C26.579 9.64 27.307 10.704 27.307 12.832C27.307 12.92 27.235 13.048 27.091 13.216C26.955 13.384 26.847 13.468 26.767 13.468H24.247C24.271 13.964 24.375 14.324 24.559 14.548C24.743 14.764 25.011 14.872 25.363 14.872C25.571 14.872 25.755 14.844 25.915 14.788C26.075 14.724 26.223 14.656 26.359 14.584C26.495 14.504 26.575 14.464 26.599 14.464C26.703 14.464 26.819 14.572 26.947 14.788C27.083 14.996 27.151 15.156 27.151 15.268C27.151 15.42 27.051 15.56 26.851 15.688C26.659 15.808 26.415 15.904 26.119 15.976C25.831 16.048 25.563 16.084 25.315 16.084ZM25.879 12.472C25.879 11.888 25.815 11.46 25.687 11.188C25.567 10.916 25.371 10.78 25.099 10.78C24.819 10.78 24.607 10.912 24.463 11.176C24.319 11.432 24.231 11.864 24.199 12.472H25.879ZM29.8163 16.084C29.3763 16.084 29.0243 15.948 28.7603 15.676C28.4963 15.404 28.3643 14.976 28.3643 14.392V7.3C28.3643 7.076 28.5763 6.964 29.0003 6.964H29.2402C29.6643 6.964 29.8763 7.076 29.8763 7.3V14.38C29.8763 14.556 29.9043 14.684 29.9603 14.764C30.0163 14.836 30.1003 14.872 30.2123 14.872C30.2683 14.872 30.3243 14.864 30.3803 14.848C30.4443 14.832 30.4923 14.824 30.5243 14.824C30.6123 14.824 30.6842 14.92 30.7402 15.112C30.8043 15.296 30.8363 15.456 30.8363 15.592C30.8363 15.76 30.7283 15.884 30.5123 15.964C30.3043 16.044 30.0723 16.084 29.8163 16.084ZM33.0506 16.084C32.6106 16.084 32.2586 15.948 31.9946 15.676C31.7306 15.404 31.5986 14.976 31.5986 14.392V7.3C31.5986 7.076 31.8106 6.964 32.2346 6.964H32.4746C32.8986 6.964 33.1106 7.076 33.1106 7.3V14.38C33.1106 14.556 33.1386 14.684 33.1946 14.764C33.2506 14.836 33.3346 14.872 33.4466 14.872C33.5026 14.872 33.5586 14.864 33.6146 14.848C33.6786 14.832 33.7266 14.824 33.7586 14.824C33.8466 14.824 33.9186 14.92 33.9746 15.112C34.0386 15.296 34.0706 15.456 34.0706 15.592C34.0706 15.76 33.9626 15.884 33.7466 15.964C33.5386 16.044 33.3066 16.084 33.0506 16.084ZM36.8758 16.084C36.0918 16.084 35.4958 15.808 35.0878 15.256C34.6798 14.704 34.4758 13.908 34.4758 12.868C34.4758 11.82 34.6758 11.02 35.0758 10.468C35.4838 9.916 36.0838 9.64 36.8758 9.64C37.6678 9.64 38.2638 9.916 38.6638 10.468C39.0718 11.02 39.2758 11.82 39.2758 12.868C39.2758 13.916 39.0718 14.716 38.6638 15.268C38.2558 15.812 37.6598 16.084 36.8758 16.084ZM36.8758 14.872C37.1798 14.872 37.3958 14.716 37.5238 14.404C37.6598 14.092 37.7278 13.576 37.7278 12.856C37.7278 12.136 37.6598 11.624 37.5238 11.32C37.3958 11.008 37.1798 10.852 36.8758 10.852C36.5718 10.852 36.3518 11.008 36.2158 11.32C36.0798 11.624 36.0118 12.136 36.0118 12.856C36.0118 13.576 36.0798 14.092 36.2158 14.404C36.3518 14.716 36.5718 14.872 36.8758 14.872ZM41.1426 13.42C40.9346 13.42 40.7906 13.392 40.7106 13.336C40.6386 13.28 40.6026 13.192 40.6026 13.072V7.924C40.6026 7.692 40.8066 7.576 41.2146 7.576H41.6706C42.0786 7.576 42.2826 7.68 42.2826 7.888L41.7666 13.072C41.7506 13.2 41.7066 13.292 41.6346 13.348C41.5706 13.396 41.4386 13.42 41.2386 13.42H41.1426ZM41.0106 16.024C40.6026 16.024 40.3986 15.908 40.3986 15.676V14.68C40.3986 14.456 40.6026 14.344 41.0106 14.344H41.3466C41.7546 14.344 41.9586 14.456 41.9586 14.68V15.676C41.9586 15.908 41.7546 16.024 41.3466 16.024H41.0106ZM47.3409 16.036C46.9329 16.036 46.7289 15.916 46.7289 15.676V7.924C46.7289 7.684 46.9329 7.564 47.3409 7.564H47.7369C48.1369 7.564 48.3369 7.684 48.3369 7.924V15.676C48.3369 15.916 48.1369 16.036 47.7369 16.036H47.3409ZM49.8816 10.048C49.7616 10.048 49.6536 10.028 49.5576 9.988C49.4616 9.948 49.4136 9.888 49.4136 9.808C49.4136 9.744 49.4416 9.636 49.4976 9.484C49.6256 9.188 49.7296 8.884 49.8096 8.572C49.8896 8.26 49.9296 7.872 49.9296 7.408C49.9296 7.256 49.9816 7.14 50.0856 7.06C50.1976 6.972 50.3576 6.928 50.5656 6.928H50.7576C50.9656 6.928 51.1216 6.972 51.2256 7.06C51.3376 7.14 51.3936 7.248 51.3936 7.384C51.3936 7.816 51.3056 8.24 51.1296 8.656C50.9536 9.064 50.7416 9.4 50.4936 9.664C50.2536 9.92 50.0496 10.048 49.8816 10.048ZM58.1971 9.64C58.6371 9.64 58.9771 9.788 59.2171 10.084C59.4651 10.38 59.5891 10.82 59.5891 11.404V15.676C59.5891 15.908 59.3851 16.024 58.9771 16.024H58.6771C58.2691 16.024 58.0651 15.908 58.0651 15.676V11.704C58.0651 11.44 58.0171 11.24 57.9211 11.104C57.8331 10.968 57.6891 10.9 57.4891 10.9C57.3371 10.9 57.1971 10.948 57.0691 11.044C56.9411 11.132 56.8291 11.244 56.7331 11.38V11.428V15.676C56.7331 15.908 56.5291 16.024 56.1211 16.024H55.8091C55.4011 16.024 55.1971 15.908 55.1971 15.676V11.704C55.1971 11.44 55.1491 11.24 55.0531 11.104C54.9651 10.968 54.8211 10.9 54.6211 10.9C54.4451 10.9 54.2931 10.956 54.1651 11.068C54.0371 11.18 53.9371 11.304 53.8651 11.44V15.676C53.8651 15.796 53.8131 15.884 53.7091 15.94C53.6131 15.996 53.4611 16.024 53.2531 16.024H52.9411C52.5411 16.024 52.3411 15.908 52.3411 15.676V11.716C52.3411 11.164 52.3211 10.768 52.2811 10.528C52.2411 10.288 52.2211 10.148 52.2211 10.108C52.2211 9.98 52.3571 9.888 52.6291 9.832C52.9091 9.768 53.1531 9.736 53.3611 9.736C53.4971 9.736 53.5891 9.784 53.6371 9.88C53.6851 9.968 53.7171 10.08 53.7331 10.216C53.7571 10.352 53.7771 10.46 53.7931 10.54C53.9691 10.276 54.1851 10.06 54.4411 9.892C54.7051 9.724 55.0011 9.64 55.3291 9.64C55.6411 9.64 55.9051 9.712 56.1211 9.856C56.3451 10 56.5051 10.216 56.6011 10.504C56.7771 10.248 57.0011 10.04 57.2731 9.88C57.5531 9.72 57.8611 9.64 58.1971 9.64ZM63.2904 16.024C62.8824 16.024 62.6784 15.908 62.6784 15.676V7.924C62.6784 7.692 62.8824 7.576 63.2904 7.576H63.6864C64.0864 7.576 64.2864 7.692 64.2864 7.924V11.032H66.7224V7.924C66.7224 7.692 66.9264 7.576 67.3344 7.576H67.7184C68.1264 7.576 68.3304 7.692 68.3304 7.924V15.676C68.3304 15.908 68.1264 16.024 67.7184 16.024H67.3344C66.9264 16.024 66.7224 15.908 66.7224 15.676V12.388H64.2864V15.676C64.2864 15.908 64.0864 16.024 63.6864 16.024H63.2904ZM71.9735 16.084C71.1895 16.084 70.5935 15.808 70.1855 15.256C69.7775 14.704 69.5735 13.908 69.5735 12.868C69.5735 11.82 69.7735 11.02 70.1735 10.468C70.5815 9.916 71.1815 9.64 71.9735 9.64C72.7655 9.64 73.3615 9.916 73.7615 10.468C74.1695 11.02 74.3735 11.82 74.3735 12.868C74.3735 13.916 74.1695 14.716 73.7615 15.268C73.3535 15.812 72.7575 16.084 71.9735 16.084ZM71.9735 14.872C72.2775 14.872 72.4935 14.716 72.6215 14.404C72.7575 14.092 72.8255 13.576 72.8255 12.856C72.8255 12.136 72.7575 11.624 72.6215 11.32C72.4935 11.008 72.2775 10.852 71.9735 10.852C71.6695 10.852 71.4495 11.008 71.3135 11.32C71.1775 11.624 71.1095 12.136 71.1095 12.856C71.1095 13.576 71.1775 14.092 71.3135 14.404C71.4495 14.716 71.6695 14.872 71.9735 14.872ZM76.7922 16.096C76.3762 16.096 75.9922 16.02 75.6402 15.868C75.2882 15.716 75.1122 15.536 75.1122 15.328C75.1122 15.184 75.1802 15.004 75.3162 14.788C75.4602 14.572 75.5842 14.464 75.6882 14.464C75.7122 14.464 75.7802 14.504 75.8922 14.584C76.0042 14.656 76.1202 14.72 76.2402 14.776C76.3602 14.824 76.4962 14.848 76.6482 14.848C76.8722 14.848 77.0442 14.796 77.1642 14.692C77.2922 14.588 77.3562 14.44 77.3562 14.248C77.3562 14.032 77.2842 13.864 77.1402 13.744C76.9962 13.624 76.7522 13.468 76.4082 13.276C76.0322 13.068 75.7402 12.836 75.5322 12.58C75.3242 12.316 75.2202 11.952 75.2202 11.488C75.2202 10.92 75.3962 10.468 75.7482 10.132C76.1002 9.796 76.5602 9.628 77.1282 9.628C77.4802 9.628 77.8122 9.684 78.1242 9.796C78.4442 9.908 78.6042 10.064 78.6042 10.264C78.6042 10.4 78.5522 10.58 78.4482 10.804C78.3442 11.02 78.2482 11.128 78.1602 11.128C78.1362 11.128 78.0402 11.088 77.8722 11.008C77.7122 10.92 77.5362 10.876 77.3442 10.876C77.1442 10.876 76.9802 10.92 76.8522 11.008C76.7322 11.096 76.6722 11.228 76.6722 11.404C76.6722 11.58 76.7322 11.724 76.8522 11.836C76.9722 11.948 77.1602 12.072 77.4162 12.208L77.6442 12.34C78.0122 12.548 78.2962 12.788 78.4962 13.06C78.6962 13.332 78.7962 13.696 78.7962 14.152C78.7962 14.736 78.6122 15.208 78.2442 15.568C77.8842 15.92 77.4002 16.096 76.7922 16.096ZM81.2507 16.084C80.7147 16.084 80.2987 15.92 80.0027 15.592C79.7147 15.256 79.5707 14.796 79.5707 14.212C79.5707 13.532 79.8067 12.992 80.2787 12.592C80.7587 12.192 81.5027 11.992 82.5107 11.992V11.668C82.5107 11.124 82.2307 10.852 81.6707 10.852C81.4547 10.852 81.2667 10.88 81.1067 10.936C80.9467 10.984 80.7747 11.052 80.5907 11.14C80.4867 11.204 80.4107 11.236 80.3627 11.236C80.2587 11.236 80.1387 11.128 80.0027 10.912C79.8747 10.688 79.8107 10.516 79.8107 10.396C79.8107 10.268 79.9027 10.148 80.0867 10.036C80.2787 9.916 80.5267 9.82 80.8307 9.748C81.1347 9.676 81.4467 9.64 81.7667 9.64C82.5347 9.64 83.1027 9.816 83.4707 10.168C83.8387 10.52 84.0227 11.004 84.0227 11.62V14.008C84.0227 14.552 84.0467 14.952 84.0947 15.208C84.1427 15.456 84.1667 15.608 84.1667 15.664C84.1667 15.776 84.0347 15.864 83.7707 15.928C83.5067 15.984 83.2707 16.012 83.0627 16.012C82.9427 16.012 82.8547 15.96 82.7987 15.856C82.7427 15.752 82.6867 15.588 82.6307 15.364C82.4947 15.564 82.3067 15.736 82.0667 15.88C81.8347 16.016 81.5627 16.084 81.2507 16.084ZM81.6707 14.92C81.8387 14.92 81.9947 14.876 82.1387 14.788C82.2907 14.7 82.4147 14.58 82.5107 14.428V12.976C81.4867 12.976 80.9747 13.356 80.9747 14.116C80.9747 14.372 81.0307 14.572 81.1427 14.716C81.2627 14.852 81.4387 14.92 81.6707 14.92ZM86.152 16.024C85.752 16.024 85.552 15.908 85.552 15.676V11.716C85.552 11.164 85.532 10.768 85.492 10.528C85.452 10.288 85.432 10.148 85.432 10.108C85.432 9.98 85.568 9.888 85.84 9.832C86.12 9.768 86.364 9.736 86.572 9.736C86.708 9.736 86.8 9.784 86.848 9.88C86.896 9.968 86.928 10.08 86.944 10.216C86.968 10.352 86.988 10.46 87.004 10.54C87.18 10.276 87.4 10.06 87.664 9.892C87.936 9.724 88.232 9.64 88.552 9.64C89.016 9.64 89.368 9.788 89.608 10.084C89.848 10.38 89.968 10.812 89.968 11.38V15.676C89.968 15.908 89.764 16.024 89.356 16.024H89.056C88.64 16.024 88.432 15.908 88.432 15.676V11.68C88.432 11.416 88.384 11.22 88.288 11.092C88.2 10.964 88.052 10.9 87.844 10.9C87.692 10.9 87.548 10.952 87.412 11.056C87.276 11.152 87.164 11.28 87.076 11.44V15.676C87.076 15.796 87.024 15.884 86.92 15.94C86.824 15.996 86.672 16.024 86.464 16.024H86.152ZM92.8171 16.084C92.2811 16.084 91.8651 15.92 91.5691 15.592C91.2811 15.256 91.1371 14.796 91.1371 14.212C91.1371 13.532 91.3731 12.992 91.8451 12.592C92.3251 12.192 93.0691 11.992 94.0771 11.992V11.668C94.0771 11.124 93.7971 10.852 93.2371 10.852C93.0211 10.852 92.8331 10.88 92.6731 10.936C92.5131 10.984 92.3411 11.052 92.1571 11.14C92.0531 11.204 91.9771 11.236 91.9291 11.236C91.8251 11.236 91.7051 11.128 91.5691 10.912C91.4411 10.688 91.3771 10.516 91.3771 10.396C91.3771 10.268 91.4691 10.148 91.6531 10.036C91.8451 9.916 92.0931 9.82 92.3971 9.748C92.7011 9.676 93.0131 9.64 93.3331 9.64C94.1011 9.64 94.6691 9.816 95.0371 10.168C95.4051 10.52 95.5891 11.004 95.5891 11.62V14.008C95.5891 14.552 95.6131 14.952 95.6611 15.208C95.7091 15.456 95.7331 15.608 95.7331 15.664C95.7331 15.776 95.6011 15.864 95.3371 15.928C95.0731 15.984 94.8371 16.012 94.6291 16.012C94.5091 16.012 94.4211 15.96 94.3651 15.856C94.3091 15.752 94.2531 15.588 94.1971 15.364C94.0611 15.564 93.8731 15.736 93.6331 15.88C93.4011 16.016 93.1291 16.084 92.8171 16.084ZM93.2371 14.92C93.4051 14.92 93.5611 14.876 93.7051 14.788C93.8571 14.7 93.9811 14.58 94.0771 14.428V12.976C93.0531 12.976 92.5411 13.356 92.5411 14.116C92.5411 14.372 92.5971 14.572 92.7091 14.716C92.8291 14.852 93.0051 14.92 93.2371 14.92Z" fill="#8D00DA"/>
<path d="M7.6725 27V22.875H8.0525V27H7.6725ZM11.381 27L10.1385 24.44H10.556L11.4935 26.475L12.301 24.44H12.546L13.3535 26.475L14.291 24.44H14.7085L13.466 27H13.2235L12.4235 25.0075L11.621 27H11.381ZM16.6116 27.08C16.3449 27.08 16.1041 27.0225 15.8891 26.9075C15.6757 26.7925 15.5066 26.6325 15.3816 26.4275C15.2566 26.2225 15.1941 25.9867 15.1941 25.72C15.1941 25.4517 15.2566 25.2158 15.3816 25.0125C15.5066 24.8075 15.6757 24.6475 15.8891 24.5325C16.1024 24.4175 16.3432 24.36 16.6116 24.36C16.8782 24.36 17.1182 24.4175 17.3316 24.5325C17.5466 24.6475 17.7166 24.8075 17.8416 25.0125C17.9666 25.2158 18.0291 25.4517 18.0291 25.72C18.0291 25.9867 17.9666 26.2225 17.8416 26.4275C17.7166 26.6325 17.5466 26.7925 17.3316 26.9075C17.1182 27.0225 16.8782 27.08 16.6116 27.08ZM16.6116 26.755C16.8116 26.755 16.9899 26.7108 17.1466 26.6225C17.3032 26.5342 17.4266 26.4125 17.5166 26.2575C17.6066 26.1008 17.6516 25.9217 17.6516 25.72C17.6516 25.5183 17.6066 25.34 17.5166 25.185C17.4266 25.0283 17.3032 24.9058 17.1466 24.8175C16.9899 24.7292 16.8116 24.685 16.6116 24.685C16.4116 24.685 16.2332 24.7292 16.0766 24.8175C15.9199 24.9058 15.7966 25.0283 15.7066 25.185C15.6166 25.34 15.5716 25.5183 15.5716 25.72C15.5716 25.92 15.6166 26.0983 15.7066 26.255C15.7966 26.4117 15.9199 26.5342 16.0766 26.6225C16.2332 26.7108 16.4116 26.755 16.6116 26.755ZM18.8998 27V24.44H19.2648V24.8175C19.3465 24.6675 19.4515 24.5542 19.5798 24.4775C19.7098 24.3992 19.8598 24.36 20.0298 24.36C20.1048 24.36 20.1806 24.3683 20.2573 24.385C20.3356 24.4017 20.4031 24.4233 20.4598 24.45L20.3098 24.7575C20.2598 24.7325 20.2023 24.7133 20.1373 24.7C20.074 24.6867 20.0131 24.68 19.9548 24.68C19.8365 24.68 19.7248 24.71 19.6198 24.77C19.5148 24.83 19.429 24.9083 19.3623 25.005C19.2973 25.1 19.2648 25.2017 19.2648 25.31V27H18.8998ZM21.1313 27V22.7H21.4963V25.4875L22.5188 24.44H22.9963L21.8288 25.645L23.0563 27H22.5888L21.4963 25.785V27H21.1313ZM26.005 27L24.7625 24.44H25.18L26.1175 26.475L26.925 24.44H27.17L27.9775 26.475L28.915 24.44H29.3325L28.09 27H27.8475L27.0475 25.0075L26.245 27H26.005ZM30.0252 27V24.44H30.3902V27H30.0252ZM30.2102 23.9275C30.1652 23.9275 30.1244 23.9167 30.0877 23.895C30.0527 23.8733 30.0244 23.8442 30.0027 23.8075C29.9811 23.7708 29.9702 23.7308 29.9702 23.6875C29.9702 23.6442 29.9811 23.605 30.0027 23.57C30.0244 23.5333 30.0527 23.5042 30.0877 23.4825C30.1244 23.4608 30.1652 23.45 30.2102 23.45C30.2536 23.45 30.2927 23.4608 30.3277 23.4825C30.3627 23.5042 30.3911 23.5325 30.4127 23.5675C30.4361 23.6025 30.4477 23.6425 30.4477 23.6875C30.4477 23.7308 30.4361 23.7708 30.4127 23.8075C30.3911 23.8442 30.3627 23.8733 30.3277 23.895C30.2927 23.9167 30.2536 23.9275 30.2102 23.9275ZM32.1057 27.08C31.914 27.08 31.7648 27.0158 31.6582 26.8875C31.5532 26.7575 31.5007 26.575 31.5007 26.34V24.715H31.2407V24.44H31.5007V23.4825H31.8657V24.44H32.5032V24.715H31.8657V26.32C31.8657 26.4617 31.8932 26.57 31.9482 26.645C32.0032 26.72 32.0815 26.7575 32.1832 26.7575C32.2815 26.7575 32.3682 26.73 32.4432 26.675L32.5357 26.965C32.479 27 32.4123 27.0275 32.3357 27.0475C32.259 27.0692 32.1823 27.08 32.1057 27.08ZM33.3334 27V22.6975H33.6984V24.79C33.7684 24.67 33.8767 24.5683 34.0234 24.485C34.1701 24.4017 34.3492 24.36 34.5609 24.36C34.7592 24.36 34.9301 24.4008 35.0734 24.4825C35.2167 24.5642 35.3267 24.6833 35.4034 24.84C35.4801 24.995 35.5184 25.1825 35.5184 25.4025V27H35.1534V25.4725C35.1534 25.2075 35.0917 25.005 34.9684 24.865C34.8451 24.725 34.6709 24.655 34.4459 24.655C34.2892 24.655 34.1551 24.6867 34.0434 24.75C33.9334 24.8133 33.8484 24.8967 33.7884 25C33.7284 25.1017 33.6984 25.2125 33.6984 25.3325V27H33.3334ZM37.883 27V24.715H37.6255V24.44H37.883V23.5225C37.883 23.3308 37.9105 23.1683 37.9655 23.035C38.0205 22.9017 38.1005 22.8 38.2055 22.73C38.3105 22.66 38.4396 22.625 38.593 22.625C38.688 22.625 38.7763 22.6383 38.858 22.665C38.9396 22.69 39.0113 22.7267 39.073 22.775L38.9455 23.035C38.8688 22.975 38.7721 22.945 38.6555 22.945C38.5621 22.945 38.4855 22.9683 38.4255 23.015C38.3655 23.06 38.3205 23.125 38.2905 23.21C38.2621 23.295 38.248 23.3958 38.248 23.5125V24.44H38.9005V24.715H38.248V27H37.883ZM39.642 27V24.44H40.007V24.8175C40.0887 24.6675 40.1937 24.5542 40.322 24.4775C40.452 24.3992 40.602 24.36 40.772 24.36C40.847 24.36 40.9228 24.3683 40.9995 24.385C41.0778 24.4017 41.1453 24.4233 41.202 24.45L41.052 24.7575C41.002 24.7325 40.9445 24.7133 40.8795 24.7C40.8162 24.6867 40.7553 24.68 40.697 24.68C40.5787 24.68 40.467 24.71 40.362 24.77C40.257 24.83 40.1712 24.9083 40.1045 25.005C40.0395 25.1 40.007 25.2017 40.007 25.31V27H39.642ZM43.0666 27.08C42.8 27.08 42.5591 27.0225 42.3441 26.9075C42.1308 26.7925 41.9616 26.6325 41.8366 26.4275C41.7116 26.2225 41.6491 25.9867 41.6491 25.72C41.6491 25.4517 41.7116 25.2158 41.8366 25.0125C41.9616 24.8075 42.1308 24.6475 42.3441 24.5325C42.5575 24.4175 42.7983 24.36 43.0666 24.36C43.3333 24.36 43.5733 24.4175 43.7866 24.5325C44.0016 24.6475 44.1716 24.8075 44.2966 25.0125C44.4216 25.2158 44.4841 25.4517 44.4841 25.72C44.4841 25.9867 44.4216 26.2225 44.2966 26.4275C44.1716 26.6325 44.0016 26.7925 43.7866 26.9075C43.5733 27.0225 43.3333 27.08 43.0666 27.08ZM43.0666 26.755C43.2666 26.755 43.445 26.7108 43.6016 26.6225C43.7583 26.5342 43.8816 26.4125 43.9716 26.2575C44.0616 26.1008 44.1066 25.9217 44.1066 25.72C44.1066 25.5183 44.0616 25.34 43.9716 25.185C43.8816 25.0283 43.7583 24.9058 43.6016 24.8175C43.445 24.7292 43.2666 24.685 43.0666 24.685C42.8666 24.685 42.6883 24.7292 42.5316 24.8175C42.375 24.9058 42.2516 25.0283 42.1616 25.185C42.0716 25.34 42.0266 25.5183 42.0266 25.72C42.0266 25.92 42.0716 26.0983 42.1616 26.255C42.2516 26.4117 42.375 26.5342 42.5316 26.6225C42.6883 26.7108 42.8666 26.755 43.0666 26.755ZM45.3549 27V24.44H45.7199V24.79C45.7899 24.67 45.8982 24.5683 46.0449 24.485C46.1915 24.4017 46.3707 24.36 46.5824 24.36C46.7807 24.36 46.9515 24.4008 47.0949 24.4825C47.2382 24.5642 47.3482 24.6833 47.4249 24.84C47.5015 24.995 47.5399 25.1825 47.5399 25.4025V27H47.1749V25.4725C47.1749 25.2075 47.1132 25.0058 46.9899 24.8675C46.8665 24.7275 46.6924 24.6575 46.4674 24.6575C46.3107 24.6575 46.1765 24.6892 46.0649 24.7525C45.9549 24.8142 45.8699 24.8967 45.8099 25C45.7499 25.1017 45.7199 25.2125 45.7199 25.3325V27H45.3549ZM49.176 27.08C48.9843 27.08 48.8351 27.0158 48.7285 26.8875C48.6235 26.7575 48.571 26.575 48.571 26.34V24.715H48.311V24.44H48.571V23.4825H48.936V24.44H49.5735V24.715H48.936V26.32C48.936 26.4617 48.9635 26.57 49.0185 26.645C49.0735 26.72 49.1518 26.7575 49.2535 26.7575C49.3518 26.7575 49.4385 26.73 49.5135 26.675L49.606 26.965C49.5493 27 49.4826 27.0275 49.406 27.0475C49.3293 27.0692 49.2526 27.08 49.176 27.08ZM50.4037 25.7075V25.395H52.0137V25.7075H50.4037ZM54.2893 27.08C54.0209 27.08 53.7809 27.0208 53.5693 26.9025C53.3593 26.7842 53.1943 26.6233 53.0743 26.42C52.9543 26.215 52.8943 25.985 52.8943 25.73C52.8943 25.5383 52.9284 25.36 52.9968 25.195C53.0668 25.0283 53.1634 24.8825 53.2868 24.7575C53.4101 24.6325 53.5534 24.535 53.7168 24.465C53.8801 24.395 54.0543 24.36 54.2393 24.36C54.4926 24.36 54.7176 24.4158 54.9143 24.5275C55.1126 24.6375 55.2693 24.79 55.3843 24.985C55.5009 25.18 55.5626 25.405 55.5693 25.66C55.5693 25.68 55.5684 25.6967 55.5668 25.71C55.5668 25.7217 55.5651 25.7367 55.5618 25.755H53.2568C53.2568 25.955 53.3018 26.1317 53.3918 26.285C53.4818 26.4383 53.6051 26.5592 53.7618 26.6475C53.9201 26.7342 54.1009 26.7775 54.3043 26.7775C54.4976 26.7775 54.6709 26.7375 54.8243 26.6575C54.9793 26.5758 55.1084 26.4592 55.2118 26.3075L55.4818 26.4525C55.3601 26.6508 55.1943 26.805 54.9843 26.915C54.7759 27.025 54.5443 27.08 54.2893 27.08ZM53.2768 25.48H55.2043C55.1826 25.32 55.1268 25.1792 55.0368 25.0575C54.9468 24.9342 54.8326 24.8375 54.6943 24.7675C54.5576 24.6975 54.4076 24.6625 54.2443 24.6625C54.0759 24.6625 53.9226 24.6975 53.7843 24.7675C53.6459 24.8358 53.5318 24.9317 53.4418 25.055C53.3534 25.1767 53.2984 25.3183 53.2768 25.48ZM56.4193 27V24.44H56.7843V24.79C56.8543 24.67 56.9627 24.5683 57.1093 24.485C57.256 24.4017 57.4352 24.36 57.6468 24.36C57.8452 24.36 58.016 24.4008 58.1593 24.4825C58.3027 24.5642 58.4127 24.6833 58.4893 24.84C58.566 24.995 58.6043 25.1825 58.6043 25.4025V27H58.2393V25.4725C58.2393 25.2075 58.1777 25.0058 58.0543 24.8675C57.931 24.7275 57.7568 24.6575 57.5318 24.6575C57.3752 24.6575 57.241 24.6892 57.1293 24.7525C57.0193 24.8142 56.9343 24.8967 56.8743 25C56.8143 25.1017 56.7843 25.2125 56.7843 25.3325V27H56.4193ZM60.7247 27.08C60.4847 27.08 60.2681 27.0217 60.0747 26.905C59.8831 26.7883 59.7306 26.6275 59.6172 26.4225C59.5056 26.2175 59.4497 25.9833 59.4497 25.72C59.4497 25.4583 59.5056 25.2258 59.6172 25.0225C59.7289 24.8175 59.8806 24.6558 60.0722 24.5375C60.2656 24.4192 60.4847 24.36 60.7297 24.36C60.9581 24.36 61.1647 24.4142 61.3497 24.5225C61.5347 24.6308 61.6797 24.7808 61.7847 24.9725V22.6975H62.1497V27H61.7847V26.46C61.6764 26.6533 61.5289 26.805 61.3422 26.915C61.1572 27.025 60.9514 27.08 60.7247 27.08ZM60.8122 26.7625C61.0039 26.7625 61.1739 26.7183 61.3222 26.63C61.4706 26.54 61.5872 26.4167 61.6722 26.26C61.7572 26.1017 61.7997 25.9225 61.7997 25.7225C61.7997 25.5192 61.7572 25.3392 61.6722 25.1825C61.5889 25.0242 61.4722 24.9008 61.3222 24.8125C61.1739 24.7225 61.0039 24.6775 60.8122 24.6775C60.6222 24.6775 60.4531 24.7225 60.3047 24.8125C60.1564 24.9008 60.0397 25.0242 59.9547 25.1825C59.8697 25.3392 59.8272 25.5192 59.8272 25.7225C59.8272 25.9242 59.8689 26.1033 59.9522 26.26C60.0372 26.4167 60.1539 26.54 60.3022 26.63C60.4522 26.7183 60.6222 26.7625 60.8122 26.7625ZM65.6027 27.08C65.3627 27.08 65.146 27.0217 64.9527 26.905C64.761 26.7883 64.6085 26.6275 64.4952 26.4225C64.3835 26.2175 64.3277 25.9833 64.3277 25.72C64.3277 25.4583 64.3835 25.2258 64.4952 25.0225C64.6068 24.8175 64.7585 24.6558 64.9502 24.5375C65.1435 24.4192 65.3627 24.36 65.6077 24.36C65.836 24.36 66.0427 24.4142 66.2277 24.5225C66.4127 24.6308 66.5577 24.7808 66.6627 24.9725V22.6975H67.0277V27H66.6627V26.46C66.5543 26.6533 66.4068 26.805 66.2202 26.915C66.0352 27.025 65.8293 27.08 65.6027 27.08ZM65.6902 26.7625C65.8818 26.7625 66.0518 26.7183 66.2002 26.63C66.3485 26.54 66.4652 26.4167 66.5502 26.26C66.6352 26.1017 66.6777 25.9225 66.6777 25.7225C66.6777 25.5192 66.6352 25.3392 66.5502 25.1825C66.4668 25.0242 66.3502 24.9008 66.2002 24.8125C66.0518 24.7225 65.8818 24.6775 65.6902 24.6775C65.5002 24.6775 65.331 24.7225 65.1827 24.8125C65.0343 24.9008 64.9177 25.0242 64.8327 25.1825C64.7477 25.3392 64.7052 25.5192 64.7052 25.7225C64.7052 25.9242 64.7468 26.1033 64.8302 26.26C64.9152 26.4167 65.0318 26.54 65.1802 26.63C65.3302 26.7183 65.5002 26.7625 65.6902 26.7625ZM69.3039 27.08C69.0356 27.08 68.7956 27.0208 68.5839 26.9025C68.3739 26.7842 68.2089 26.6233 68.0889 26.42C67.9689 26.215 67.9089 25.985 67.9089 25.73C67.9089 25.5383 67.9431 25.36 68.0114 25.195C68.0814 25.0283 68.1781 24.8825 68.3014 24.7575C68.4247 24.6325 68.5681 24.535 68.7314 24.465C68.8947 24.395 69.0689 24.36 69.2539 24.36C69.5072 24.36 69.7322 24.4158 69.9289 24.5275C70.1272 24.6375 70.2839 24.79 70.3989 24.985C70.5156 25.18 70.5772 25.405 70.5839 25.66C70.5839 25.68 70.5831 25.6967 70.5814 25.71C70.5814 25.7217 70.5797 25.7367 70.5764 25.755H68.2714C68.2714 25.955 68.3164 26.1317 68.4064 26.285C68.4964 26.4383 68.6197 26.5592 68.7764 26.6475C68.9347 26.7342 69.1156 26.7775 69.3189 26.7775C69.5122 26.7775 69.6856 26.7375 69.8389 26.6575C69.9939 26.5758 70.1231 26.4592 70.2264 26.3075L70.4964 26.4525C70.3747 26.6508 70.2089 26.805 69.9989 26.915C69.7906 27.025 69.5589 27.08 69.3039 27.08ZM68.2914 25.48H70.2189C70.1972 25.32 70.1414 25.1792 70.0514 25.0575C69.9614 24.9342 69.8472 24.8375 69.7089 24.7675C69.5722 24.6975 69.4222 24.6625 69.2589 24.6625C69.0906 24.6625 68.9372 24.6975 68.7989 24.7675C68.6606 24.8358 68.5464 24.9317 68.4564 25.055C68.3681 25.1767 68.3131 25.3183 68.2914 25.48ZM72.2843 27L71.0418 24.44H71.4693L72.4043 26.48L73.3418 24.44H73.7693L72.5243 27H72.2843ZM75.6516 27.08C75.3832 27.08 75.1432 27.0208 74.9316 26.9025C74.7216 26.7842 74.5566 26.6233 74.4366 26.42C74.3166 26.215 74.2566 25.985 74.2566 25.73C74.2566 25.5383 74.2907 25.36 74.3591 25.195C74.4291 25.0283 74.5257 24.8825 74.6491 24.7575C74.7724 24.6325 74.9157 24.535 75.0791 24.465C75.2424 24.395 75.4166 24.36 75.6016 24.36C75.8549 24.36 76.0799 24.4158 76.2766 24.5275C76.4749 24.6375 76.6316 24.79 76.7466 24.985C76.8632 25.18 76.9249 25.405 76.9316 25.66C76.9316 25.68 76.9307 25.6967 76.9291 25.71C76.9291 25.7217 76.9274 25.7367 76.9241 25.755H74.6191C74.6191 25.955 74.6641 26.1317 74.7541 26.285C74.8441 26.4383 74.9674 26.5592 75.1241 26.6475C75.2824 26.7342 75.4632 26.7775 75.6666 26.7775C75.8599 26.7775 76.0332 26.7375 76.1866 26.6575C76.3416 26.5758 76.4707 26.4592 76.5741 26.3075L76.8441 26.4525C76.7224 26.6508 76.5566 26.805 76.3466 26.915C76.1382 27.025 75.9066 27.08 75.6516 27.08ZM74.6391 25.48H76.5666C76.5449 25.32 76.4891 25.1792 76.3991 25.0575C76.3091 24.9342 76.1949 24.8375 76.0566 24.7675C75.9199 24.6975 75.7699 24.6625 75.6066 24.6625C75.4382 24.6625 75.2849 24.6975 75.1466 24.7675C75.0082 24.8358 74.8941 24.9317 74.8041 25.055C74.7157 25.1767 74.6607 25.3183 74.6391 25.48ZM77.7816 27V22.7H78.1466V27H77.7816ZM80.4446 27.08C80.1779 27.08 79.9371 27.0225 79.7221 26.9075C79.5087 26.7925 79.3396 26.6325 79.2146 26.4275C79.0896 26.2225 79.0271 25.9867 79.0271 25.72C79.0271 25.4517 79.0896 25.2158 79.2146 25.0125C79.3396 24.8075 79.5087 24.6475 79.7221 24.5325C79.9354 24.4175 80.1762 24.36 80.4446 24.36C80.7112 24.36 80.9512 24.4175 81.1646 24.5325C81.3796 24.6475 81.5496 24.8075 81.6746 25.0125C81.7996 25.2158 81.8621 25.4517 81.8621 25.72C81.8621 25.9867 81.7996 26.2225 81.6746 26.4275C81.5496 26.6325 81.3796 26.7925 81.1646 26.9075C80.9512 27.0225 80.7112 27.08 80.4446 27.08ZM80.4446 26.755C80.6446 26.755 80.8229 26.7108 80.9796 26.6225C81.1362 26.5342 81.2596 26.4125 81.3496 26.2575C81.4396 26.1008 81.4846 25.9217 81.4846 25.72C81.4846 25.5183 81.4396 25.34 81.3496 25.185C81.2596 25.0283 81.1362 24.9058 80.9796 24.8175C80.8229 24.7292 80.6446 24.685 80.4446 24.685C80.2446 24.685 80.0662 24.7292 79.9096 24.8175C79.7529 24.9058 79.6296 25.0283 79.5396 25.185C79.4496 25.34 79.4046 25.5183 79.4046 25.72C79.4046 25.92 79.4496 26.0983 79.5396 26.255C79.6296 26.4117 79.7529 26.5342 79.9096 26.6225C80.0662 26.7108 80.2446 26.755 80.4446 26.755ZM82.7328 28.3V24.44H83.0978V24.97C83.2011 24.7783 83.3453 24.6292 83.5303 24.5225C83.717 24.4142 83.9236 24.36 84.1503 24.36C84.3953 24.36 84.6145 24.4192 84.8078 24.5375C85.0011 24.6558 85.1536 24.8175 85.2653 25.0225C85.377 25.2258 85.4328 25.4583 85.4328 25.72C85.4328 25.9783 85.377 26.2108 85.2653 26.4175C85.1553 26.6225 85.0036 26.7842 84.8103 26.9025C84.6186 27.0208 84.4003 27.08 84.1553 27.08C83.932 27.08 83.727 27.025 83.5403 26.915C83.3536 26.805 83.2061 26.6533 83.0978 26.46V28.3H82.7328ZM84.0703 26.7625C84.262 26.7625 84.432 26.7183 84.5803 26.63C84.7286 26.54 84.8445 26.4167 84.9278 26.26C85.0128 26.1033 85.0553 25.9242 85.0553 25.7225C85.0553 25.5192 85.0128 25.3392 84.9278 25.1825C84.8428 25.0242 84.7261 24.9008 84.5778 24.8125C84.4311 24.7225 84.262 24.6775 84.0703 24.6775C83.8786 24.6775 83.7086 24.7225 83.5603 24.8125C83.412 24.9008 83.2953 25.0233 83.2103 25.18C83.1253 25.3367 83.0828 25.5167 83.0828 25.72C83.0828 25.9217 83.1253 26.1017 83.2103 26.26C83.2953 26.4167 83.412 26.54 83.5603 26.63C83.7103 26.7183 83.8803 26.7625 84.0703 26.7625ZM86.3266 27V24.44H86.6916V24.79C86.7932 24.6483 86.9149 24.5417 87.0566 24.47C87.1982 24.3967 87.3566 24.36 87.5316 24.36C87.7416 24.36 87.9241 24.4083 88.0791 24.505C88.2357 24.6017 88.3441 24.7333 88.4041 24.9C88.5024 24.7367 88.6274 24.6058 88.7791 24.5075C88.9324 24.4092 89.1141 24.36 89.3241 24.36C89.5057 24.36 89.6674 24.3975 89.8091 24.4725C89.9507 24.5458 90.0616 24.6542 90.1416 24.7975C90.2232 24.9392 90.2641 25.1125 90.2641 25.3175V27H89.8991V25.42C89.8991 25.1867 89.8382 25.0017 89.7166 24.865C89.5949 24.7283 89.4324 24.66 89.2291 24.66C89.0891 24.66 88.9624 24.6908 88.8491 24.7525C88.7357 24.8142 88.6457 24.8942 88.5791 24.9925C88.5124 25.0892 88.4791 25.1892 88.4791 25.2925V27H88.1141V25.3825C88.1141 25.1608 88.0532 24.985 87.9316 24.855C87.8116 24.725 87.6524 24.66 87.4541 24.66C87.3141 24.66 87.1857 24.69 87.0691 24.75C86.9541 24.8083 86.8624 24.8842 86.7941 24.9775C86.7257 25.0708 86.6916 25.1667 86.6916 25.265V27H86.3266ZM92.4973 27.08C92.2289 27.08 91.9889 27.0208 91.7773 26.9025C91.5673 26.7842 91.4023 26.6233 91.2823 26.42C91.1623 26.215 91.1023 25.985 91.1023 25.73C91.1023 25.5383 91.1364 25.36 91.2048 25.195C91.2748 25.0283 91.3714 24.8825 91.4948 24.7575C91.6181 24.6325 91.7614 24.535 91.9248 24.465C92.0881 24.395 92.2623 24.36 92.4473 24.36C92.7006 24.36 92.9256 24.4158 93.1223 24.5275C93.3206 24.6375 93.4773 24.79 93.5923 24.985C93.7089 25.18 93.7706 25.405 93.7773 25.66C93.7773 25.68 93.7764 25.6967 93.7748 25.71C93.7748 25.7217 93.7731 25.7367 93.7698 25.755H91.4648C91.4648 25.955 91.5098 26.1317 91.5998 26.285C91.6898 26.4383 91.8131 26.5592 91.9698 26.6475C92.1281 26.7342 92.3089 26.7775 92.5123 26.7775C92.7056 26.7775 92.8789 26.7375 93.0323 26.6575C93.1873 26.5758 93.3164 26.4592 93.4198 26.3075L93.6898 26.4525C93.5681 26.6508 93.4023 26.805 93.1923 26.915C92.9839 27.025 92.7523 27.08 92.4973 27.08ZM91.4848 25.48H93.4123C93.3906 25.32 93.3348 25.1792 93.2448 25.0575C93.1548 24.9342 93.0406 24.8375 92.9023 24.7675C92.7656 24.6975 92.6156 24.6625 92.4523 24.6625C92.2839 24.6625 92.1306 24.6975 91.9923 24.7675C91.8539 24.8358 91.7398 24.9317 91.6498 25.055C91.5614 25.1767 91.5064 25.3183 91.4848 25.48ZM94.6273 27V24.44H94.9923V24.79C95.0623 24.67 95.1707 24.5683 95.3173 24.485C95.464 24.4017 95.6432 24.36 95.8548 24.36C96.0532 24.36 96.224 24.4008 96.3673 24.4825C96.5107 24.5642 96.6207 24.6833 96.6973 24.84C96.774 24.995 96.8123 25.1825 96.8123 25.4025V27H96.4473V25.4725C96.4473 25.2075 96.3857 25.0058 96.2623 24.8675C96.139 24.7275 95.9648 24.6575 95.7398 24.6575C95.5832 24.6575 95.449 24.6892 95.3373 24.7525C95.2273 24.8142 95.1423 24.8967 95.0823 25C95.0223 25.1017 94.9923 25.2125 94.9923 25.3325V27H94.6273ZM98.4484 27.08C98.2568 27.08 98.1076 27.0158 98.0009 26.8875C97.8959 26.7575 97.8434 26.575 97.8434 26.34V24.715H97.5834V24.44H97.8434V23.4825H98.2084V24.44H98.8459V24.715H98.2084V26.32C98.2084 26.4617 98.2359 26.57 98.2909 26.645C98.3459 26.72 98.4243 26.7575 98.5259 26.7575C98.6243 26.7575 98.7109 26.73 98.7859 26.675L98.8784 26.965C98.8218 27 98.7551 27.0275 98.6784 27.0475C98.6018 27.0692 98.5251 27.08 98.4484 27.08ZM101.333 24.7025C101.286 24.7025 101.244 24.6917 101.205 24.67C101.167 24.6467 101.136 24.6158 101.113 24.5775C101.09 24.5375 101.078 24.4942 101.078 24.4475C101.078 24.3992 101.09 24.3558 101.113 24.3175C101.136 24.2792 101.167 24.2483 101.205 24.225C101.244 24.2017 101.286 24.19 101.333 24.19C101.381 24.19 101.425 24.2017 101.463 24.225C101.501 24.2483 101.532 24.2792 101.555 24.3175C101.579 24.3558 101.59 24.3992 101.59 24.4475C101.59 24.4942 101.579 24.5375 101.555 24.5775C101.532 24.6158 101.501 24.6467 101.463 24.67C101.425 24.6917 101.381 24.7025 101.333 24.7025ZM101.333 27.08C101.286 27.08 101.244 27.0683 101.205 27.045C101.167 27.0217 101.136 26.9908 101.113 26.9525C101.09 26.9125 101.078 26.8692 101.078 26.8225C101.078 26.7758 101.09 26.7333 101.113 26.695C101.136 26.655 101.167 26.6242 101.205 26.6025C101.244 26.5792 101.286 26.5675 101.333 26.5675C101.381 26.5675 101.425 26.5792 101.463 26.6025C101.501 26.6242 101.532 26.655 101.555 26.695C101.579 26.7333 101.59 26.7758 101.59 26.8225C101.59 26.8692 101.579 26.9125 101.555 26.9525C101.532 26.9908 101.501 27.0217 101.463 27.045C101.425 27.0683 101.381 27.08 101.333 27.08ZM102.791 28.3L102.551 28.1975C102.725 27.9425 102.871 27.6667 102.989 27.37C103.107 27.0733 103.197 26.7642 103.259 26.4425C103.322 26.1208 103.354 25.795 103.354 25.465C103.354 25.1483 103.324 24.8308 103.264 24.5125C103.206 24.1942 103.117 23.8842 102.999 23.5825C102.882 23.2808 102.733 22.9958 102.551 22.7275L102.791 22.625C103.088 23.01 103.315 23.4475 103.471 23.9375C103.63 24.4275 103.709 24.9358 103.709 25.4625C103.709 25.9708 103.632 26.4708 103.479 26.9625C103.327 27.4525 103.098 27.8983 102.791 28.3Z" fill="#FF007F"/>
</svg>
